HIERARCHY
ROOT Hips
{
	OFFSET -0.001795 -0.223333 0.028219
	CHANNELS 6 Xposition Yposition Zposition Zrotation Yrotation Xrotation 
	JOINT LeftUpLeg
	{
		OFFSET 0.069520 -0.091406 -0.006815
		CHANNELS 3 Zrotation Yrotation Xrotation
		JOINT LeftLeg
		{
			OFFSET 0.034277 -0.375199 -0.004496
			CHANNELS 3 Zrotation Yrotation Xrotation
			JOINT LeftFoot
			{
				OFFSET -0.013596 -0.397961 -0.043693
				CHANNELS 3 Zrotation Yrotation Xrotation
				JOINT LeftToe
				{
					OFFSET 0.026358 -0.055791 0.119288
					CHANNELS 3 Zrotation Yrotation Xrotation
					End Site
					{
						OFFSET 0.000000 0.000000 0.000000
					}
				}
			}
		}
	}
	JOINT RightUpLeg
	{
		OFFSET -0.067670 -0.090522 -0.004320
		CHANNELS 3 Zrotation Yrotation Xrotation
		JOINT RightLeg
		{
			OFFSET -0.038290 -0.382569 -0.008850
			CHANNELS 3 Zrotation Yrotation Xrotation
			JOINT RightFoot
			{
				OFFSET 0.015774 -0.398415 -0.042312
				CHANNELS 3 Zrotation Yrotation Xrotation
				JOINT RightToe
				{
					OFFSET -0.025372 -0.048144 0.123348
					CHANNELS 3 Zrotation Yrotation Xrotation
					End Site
					{
						OFFSET 0.000000 0.000000 0.000000
					}
				}
			}
		}
	}
	JOINT Spine
	{
		OFFSET -0.002533 0.108963 -0.026696
		CHANNELS 3 Zrotation Yrotation Xrotation
		JOINT Spine1
		{
			OFFSET 0.005487 0.135180 0.001092
			CHANNELS 3 Zrotation Yrotation Xrotation
			JOINT Spine2
			{
				OFFSET 0.001457 0.052922 0.025425
				CHANNELS 3 Zrotation Yrotation Xrotation
				JOINT Neck
				{
					OFFSET -0.002778 0.213870 -0.042857
					CHANNELS 3 Zrotation Yrotation Xrotation
					JOINT Head
					{
						OFFSET 0.005152 0.064970 0.051349
						CHANNELS 3 Zrotation Yrotation Xrotation
						End Site
						{
							OFFSET 0.000000 0.000000 0.000000
						}
					}
				}
				JOINT LeftShoulder
				{
					OFFSET 0.078845 0.121749 -0.034090
					CHANNELS 3 Zrotation Yrotation Xrotation
					JOINT LeftArm
					{
						OFFSET 0.090977 0.030469 -0.008868
						CHANNELS 3 Zrotation Yrotation Xrotation
						JOINT LeftForeArm
						{
							OFFSET 0.259612 -0.012772 -0.027456
							CHANNELS 3 Zrotation Yrotation Xrotation
							JOINT LeftHand
							{
								OFFSET 0.249234 0.008986 -0.001171
								CHANNELS 3 Zrotation Yrotation Xrotation
								End Site
								{
									OFFSET 0.000000 0.000000 0.000000
								}
							}
						}
					}
				}
				JOINT RightShoulder
				{
					OFFSET -0.081759 0.118833 -0.038615
					CHANNELS 3 Zrotation Yrotation Xrotation
					JOINT RightArm
					{
						OFFSET -0.096012 0.032551 -0.009143
						CHANNELS 3 Zrotation Yrotation Xrotation
						JOINT RightForeArm
						{
							OFFSET -0.253742 -0.013329 -0.021401
							CHANNELS 3 Zrotation Yrotation Xrotation
							JOINT RightHand
							{
								OFFSET -0.255298 0.007772 -0.005559
								CHANNELS 3 Zrotation Yrotation Xrotation
								End Site
								{
									OFFSET 0.000000 0.000000 0.000000
								}
							}
						}
					}
				}
			}
		}
	}
}
MOTION
Frames: 13
Frame Time: 0.050000
-3.229607 0.913745 3.842260 -9.244620 -45.064352 -11.596907 4.538040 1.278590 5.872288 3.551496 4.271593 33.116613 1.904606 6.156696 -6.136883 0.000000 0.000000 0.000000 -4.040315 5.253823 -29.139881 27.458136 0.853680 55.357927 -22.948391 -37.330757 36.953737 0.000000 0.000000 0.000000 -0.169218 7.057270 47.262742 1.449141 0.461505 -41.406967 -10.807416 -17.654925 36.225224 -6.208974 -0.578648 -15.870787 0.000000 0.000000 0.000000 -28.497449 -8.415558 17.216050 -12.238221 -53.036274 -2.012672 49.782222 -48.438524 -18.186153 0.000000 0.000000 0.000000 19.806004 7.234520 -8.665989 43.876658 -34.138761 -17.488551 22.554374 29.035842 4.196385 0.000000 0.000000 0.000000 
-3.265537 0.922605 3.854292 -8.466417 -47.628595 -9.684161 4.636701 1.824800 9.478285 2.852425 3.464306 27.706374 1.766016 6.673618 -6.234708 0.000000 0.000000 0.000000 -2.000839 5.136038 -27.193545 21.267026 2.865343 44.984796 -20.371233 -35.253668 38.486520 0.000000 0.000000 0.000000 0.287314 6.513318 44.475994 0.583476 0.462725 -40.478449 -10.918043 -16.955287 34.088822 -4.886860 -1.252167 -13.772207 0.000000 0.000000 0.000000 -26.123021 -8.983008 16.787234 -12.573089 -54.860029 -1.065259 54.803526 -46.690514 -19.333056 0.000000 0.000000 0.000000 20.049187 5.071737 -10.566774 43.155686 -38.161934 -18.728823 22.208083 29.172025 4.053770 0.000000 0.000000 0.000000 
-3.301151 0.932306 3.865454 -7.757227 -48.643712 -7.420943 3.948876 2.202456 11.813102 3.175697 2.120876 22.571444 2.627719 8.706557 -3.965899 0.000000 0.000000 0.000000 -1.312391 4.510995 -24.813369 19.463117 2.698268 38.488700 -18.540220 -33.537122 39.695995 0.000000 0.000000 0.000000 1.788960 5.205078 41.625607 -3.024883 1.095552 -41.603262 -10.088370 -19.271794 33.778288 -4.925143 -1.219128 -12.303182 0.000000 0.000000 0.000000 -27.135388 -7.564764 17.655756 -15.932861 -55.098824 -0.047033 55.809702 -47.871216 -19.743763 0.000000 0.000000 0.000000 19.600173 3.753628 -12.591214 43.635388 -40.807919 -20.026291 21.090656 29.126338 3.471820 0.000000 0.000000 0.000000 
-3.335079 0.939540 3.875273 -7.590085 -51.292688 -4.536474 2.558435 2.485357 13.047049 3.634207 1.586339 19.567380 4.628514 12.296020 0.429844 0.000000 0.000000 0.000000 0.881314 4.350745 -23.098511 17.511290 2.804338 32.997521 -19.947519 -34.660992 38.682524 0.000000 0.000000 0.000000 2.435930 4.445517 38.389597 -3.422873 1.037875 -40.064034 -8.738181 -19.268725 32.726843 -4.001958 -1.982433 -12.248725 0.000000 0.000000 0.000000 -28.020338 -5.538523 17.986608 -19.702771 -53.651952 0.902637 58.663718 -49.679695 -21.171003 0.000000 0.000000 0.000000 18.543785 1.589569 -14.224905 45.050563 -39.557460 -20.243558 20.770086 28.360595 2.850479 0.000000 0.000000 0.000000 
-3.367303 0.943880 3.883590 -6.998147 -53.654374 -2.006689 1.992574 2.623797 13.422325 3.637335 1.547744 18.312419 4.818137 11.351220 3.615611 0.000000 0.000000 0.000000 2.150528 4.115933 -21.775535 15.247702 2.783208 28.474486 -19.175497 -34.393631 35.199081 0.000000 0.000000 0.000000 3.312985 3.638335 35.566392 -5.105842 1.494194 -41.341559 -7.855174 -19.421112 33.232521 -3.038248 -2.502757 -10.539918 0.000000 0.000000 0.000000 -28.879097 -4.135770 18.701650 -21.873131 -50.690965 0.605327 54.310445 -51.399432 -19.596751 0.000000 0.000000 0.000000 20.982384 1.989992 -17.290293 43.789383 -40.076216 -18.816143 18.384457 28.214267 2.193634 0.000000 0.000000 0.000000 
-3.399130 0.942680 3.890411 -6.854265 -56.073824 -0.013872 2.838675 2.159696 11.019085 2.671983 3.347807 22.463724 4.868022 9.585307 7.666724 0.000000 0.000000 0.000000 3.649433 3.897599 -20.496260 13.892037 2.980147 26.915928 -17.541394 -33.544026 28.191681 0.000000 0.000000 0.000000 2.194272 3.344099 32.557325 -1.514498 0.850436 -39.606710 -7.315839 -18.040833 31.964937 -3.044756 -2.356958 -10.840471 0.000000 0.000000 0.000000 -30.960644 -0.745674 17.950001 -27.449374 -45.911190 0.514777 46.980678 -54.334433 -16.421366 0.000000 0.000000 0.000000 21.365576 3.632247 -17.441506 46.652272 -36.251018 -18.001169 14.865105 30.317541 1.298587 0.000000 0.000000 0.000000 
-3.429446 0.935778 3.896602 -8.598847 -60.288052 1.910548 4.655608 1.913629 8.232487 2.559454 7.958370 31.946557 2.537678 4.398139 9.798275 0.000000 0.000000 0.000000 7.314244 4.052750 -19.261974 10.274053 4.016539 27.619428 -15.389415 -31.635746 23.434200 0.000000 0.000000 0.000000 2.292275 3.406504 31.733782 -0.154117 0.798218 -40.413393 -5.999058 -15.850337 33.174303 -3.278165 -2.428216 -11.280555 0.000000 0.000000 0.000000 -32.534640 1.415987 17.596615 -28.440654 -41.603824 -1.029961 33.708527 -53.242227 -9.966765 0.000000 0.000000 0.000000 24.083859 6.696625 -18.790860 44.874332 -33.178710 -14.579832 12.466279 29.981833 0.772791 0.000000 0.000000 0.000000 
-3.456356 0.924704 3.903530 -10.229881 -65.226973 2.616903 6.856313 1.925757 3.598624 8.709973 14.670869 48.353433 -1.825926 -2.790896 10.146343 0.000000 0.000000 0.000000 10.061679 3.895715 -17.506699 8.256677 5.626884 30.506882 -13.618704 -29.239370 17.757447 0.000000 0.000000 0.000000 2.583699 4.187055 32.960554 0.827759 1.179666 -41.631248 -5.353843 -16.346458 34.539347 -4.933572 -2.489120 -14.381367 0.000000 0.000000 0.000000 -36.067154 4.561702 18.540056 -27.864584 -38.001670 -3.325064 21.895574 -49.115115 -4.632839 0.000000 0.000000 0.000000 22.864951 9.206831 -18.445950 45.831116 -26.923957 -11.832087 13.077680 31.352836 0.494598 0.000000 0.000000 0.000000 
-3.478673 0.918666 3.912580 -16.796495 -71.909784 7.558634 7.593687 2.358938 -1.985002 23.585125 16.572400 65.304742 -8.530853 -12.496652 11.203867 0.000000 0.000000 0.000000 13.615382 3.723233 -14.915158 6.148186 7.713849 33.056147 -11.249943 -25.351945 13.292226 0.000000 0.000000 0.000000 3.999191 4.767821 33.907202 -0.810604 1.523258 -42.229658 -3.664701 -15.499884 36.651412 -3.130036 -4.387435 -15.008986 0.000000 0.000000 0.000000 -36.626539 5.858515 19.667239 -29.899636 -34.757618 -4.174425 17.363998 -43.078222 -2.991390 0.000000 0.000000 0.000000 24.072909 11.017776 -20.914914 44.065148 -21.065324 -7.716916 12.610975 34.648038 0.203595 0.000000 0.000000 0.000000 
-3.497459 0.925875 3.924166 -26.014946 -78.785502 16.447043 4.871340 2.208723 -6.814229 35.833584 15.050683 72.764881 -12.338967 -19.728812 7.024676 0.000000 0.000000 0.000000 15.065701 3.004617 -12.055403 2.534001 9.411252 33.041113 -6.587564 -17.693089 9.600810 0.000000 0.000000 0.000000 4.786192 5.958323 35.400057 -0.594206 1.927652 -42.896185 -3.028526 -15.299332 37.337722 -2.176510 -6.135320 -17.629078 0.000000 0.000000 0.000000 -40.095313 9.660736 20.488012 -30.414467 -30.639753 -6.424016 12.116993 -40.664563 -1.421408 0.000000 0.000000 0.000000 22.656820 13.788323 -21.061889 44.021119 -17.073433 -5.592302 12.002964 40.059440 -0.644834 0.000000 0.000000 0.000000 
-3.514110 0.941171 3.937674 -82.103704 -85.720367 71.809270 1.655731 2.361382 -11.182836 44.558854 14.093599 72.170703 -17.578291 -26.400460 6.894454 0.000000 0.000000 0.000000 16.092986 2.112420 -8.506456 -2.621360 10.217382 30.169533 -0.668336 -10.942018 11.242582 0.000000 0.000000 0.000000 5.077455 7.558993 36.577511 -1.456844 2.679552 -43.764888 -1.417816 -12.624696 38.352889 0.016785 -8.009123 -18.567652 0.000000 0.000000 0.000000 -40.258449 12.348883 20.041501 -31.836413 -24.828021 -7.909753 7.349996 -39.911257 -0.018239 0.000000 0.000000 0.000000 20.326129 13.378996 -21.383627 44.230829 -13.723327 -4.743544 15.169505 44.944097 -0.139858 0.000000 0.000000 0.000000 
-3.530227 0.957043 3.951734 -152.250907 -81.734657 143.374587 -1.650516 2.160687 -13.186388 42.869006 13.935362 58.576186 -19.666742 -25.539154 3.283949 0.000000 0.000000 0.000000 15.127582 1.705700 -8.097191 -4.414058 9.983276 27.771604 5.109362 -6.535873 14.525248 0.000000 0.000000 0.000000 5.596201 8.602059 37.069991 -0.878504 5.091964 -47.357858 -2.935457 -13.029742 40.048134 0.548119 -9.374009 -19.387601 0.000000 0.000000 0.000000 -40.313424 15.408708 19.734909 -32.931025 -19.830828 -9.334630 1.428964 -38.079515 1.499308 0.000000 0.000000 0.000000 16.862446 13.124979 -21.994768 45.482632 -12.746993 -5.309843 17.085222 51.022830 -0.480999 0.000000 0.000000 0.000000 
-3.546636 0.967994 3.965538 -170.911894 -72.102729 162.497838 -2.123800 2.297804 -11.643395 35.047127 13.207408 42.702607 -29.681407 -23.510389 8.427645 0.000000 0.000000 0.000000 13.502253 0.918843 -6.621677 -6.222022 9.176978 24.672829 10.353181 -2.058033 17.134599 0.000000 0.000000 0.000000 3.993524 9.940083 36.211294 -0.599257 5.316614 -46.425862 -1.350552 -9.991021 40.181377 3.703860 -10.278390 -20.996884 0.000000 0.000000 0.000000 -38.934763 17.250889 19.847153 -34.703249 -16.669170 -10.006380 -1.394381 -37.131373 2.155107 0.000000 0.000000 0.000000 15.971236 14.134228 -24.086431 44.803064 -13.959563 -5.439036 25.934950 56.590429 3.465672 0.000000 0.000000 0.000000 
